<?xml version="1.0" encoding="utf-8"?><svg xmlns="http://www.w3.org/2000/svg" xmlns:xlink="http://www.w3.org/1999/xlink"><symbol viewBox="0 0 30 30" id="phone-receiver" xmlns="http://www.w3.org/2000/svg"><path d="M29.986 23.67c.063.487-.085.91-.445 1.27l-4.224 4.192c-.19.212-.44.392-.746.54a3.083 3.083 0 01-.905.286c-.021 0-.085.006-.19.016-.107.01-.244.016-.414.016-.402 0-1.053-.069-1.953-.206-.9-.138-2-.477-3.303-1.017-1.302-.54-2.779-1.35-4.43-2.43-1.652-1.079-3.409-2.561-5.272-4.445-1.482-1.461-2.71-2.859-3.684-4.192-.974-1.334-1.757-2.568-2.35-3.7-.593-1.133-1.038-2.16-1.334-3.081C.439 9.998.238 9.204.132 8.537.026 7.87-.016 7.347.005 6.965c.021-.381.032-.593.032-.635.042-.297.138-.598.286-.905a2.38 2.38 0 01.54-.747L5.087.454C5.383.158 5.722.01 6.103.01c.275 0 .519.08.73.238.212.159.392.355.54.587l3.399 6.448c.19.338.243.709.158 1.111a1.978 1.978 0 01-.54 1.016l-1.556 1.557a.529.529 0 00-.11.206.784.784 0 00-.049.238c.085.445.276.953.572 1.525.254.508.646 1.127 1.175 1.857.53.731 1.281 1.573 2.255 2.525.953.974 1.8 1.731 2.54 2.271.742.54 1.361.937 1.859 1.191.497.254.878.408 1.143.46l.397.08a.759.759 0 00.206-.048.53.53 0 00.207-.111l1.81-1.842a1.946 1.946 0 011.334-.508c.36 0 .646.063.857.19h.032l6.13 3.621c.444.275.709.625.794 1.048z"/></symbol></svg>