<svg width="20" height="11" fill="none" xmlns="http://www.w3.org/2000/svg">
    <path fill-rule="evenodd" clip-rule="evenodd" d="M10.941 10.907s.347-.037.524-.225c.163-.171.157-.495.157-.495s-.021-1.51.693-1.734c.705-.219 1.609 1.461 2.569 2.108.725.488 1.275.381 1.275.381l2.565-.035s1.34-.08.705-1.116c-.053-.085-.371-.766-1.906-2.165-1.61-1.465-1.393-1.228.543-3.762 1.18-1.543 1.651-2.485 1.504-2.888-.14-.385-1.008-.283-1.008-.283L15.675.71s-.214-.028-.372.065c-.155.091-.256.304-.256.304s-.456 1.194-1.066 2.21c-1.285 2.142-1.799 2.255-2.01 2.123-.489-.311-.367-1.247-.367-1.911 0-2.077.322-2.943-.624-3.167-.314-.074-.545-.123-1.348-.131-1.03-.01-1.901.003-2.395.24-.329.158-.582.51-.427.53.19.025.622.114.851.42.296.396.286 1.283.286 1.283s.17 2.444-.397 2.748c-.39.208-.923-.217-2.07-2.161-.586-.996-1.03-2.096-1.03-2.096S4.366.96 4.213.85C4.027.717 3.77.675 3.77.675L1.026.693S.614.704.462.88c-.134.156-.01.48-.01.48S2.6 6.291 5.032 8.777c2.23 2.279 4.762 2.13 4.762 2.13h1.147z" fill="#fff"/>
</svg>
