<svg width="20" height="15" fill="none" xmlns="http://www.w3.org/2000/svg">
    <path fill-rule="evenodd" clip-rule="evenodd" d="M19.199 2.555A2.438 2.438 0 0017.5.812C16.004.4 10 .4 10 .4S3.996.4 2.499.812A2.438 2.438 0 00.8 2.555C.4 4.092.4 7.3.4 7.3s0 3.208.401 4.745c.22.848.871 1.516 1.698 1.743 1.497.412 7.5.412 7.5.412s6.005 0 7.502-.412a2.438 2.438 0 001.698-1.743c.4-1.537.4-4.745.4-4.745s0-3.208-.4-4.745z" fill="#fff"/>
    <path fill-rule="evenodd" clip-rule="evenodd" d="M8.2 10.6v-6l4.8 3-4.8 3z" fill="#6A6A6A"/>
</svg>
