<svg width="20" height="11" viewBox="0 0 20 11" fill="none" xmlns="http://www.w3.org/2000/svg">
<path fill-rule="evenodd" clip-rule="evenodd" d="M10.9415 10.9073C10.9415 10.9073 11.288 10.8695 11.4655 10.6823C11.628 10.5109 11.6223 10.1873 11.6223 10.1873C11.6223 10.1873 11.6007 8.67652 12.3154 8.45345C13.0197 8.23406 13.924 9.91449 14.8837 10.5607C15.6087 11.0492 16.159 10.9423 16.159 10.9423L18.7236 10.9073C18.7236 10.9073 20.0646 10.8261 19.4288 9.79097C19.3763 9.70616 19.0579 9.02496 17.5225 7.62568C15.9139 6.16096 16.1299 6.39786 18.0662 3.86385C19.2457 2.32078 19.7171 1.37871 19.5697 0.975884C19.4298 0.590575 18.5621 0.692894 18.5621 0.692894L15.6754 0.710408C15.6754 0.710408 15.4613 0.681833 15.3026 0.774934C15.1476 0.866191 15.0471 1.07912 15.0471 1.07912C15.0471 1.07912 14.5907 2.27284 13.9813 3.28866C12.6957 5.4309 12.182 5.54428 11.9717 5.41154C11.4824 5.1009 11.6045 4.16528 11.6045 3.50067C11.6045 1.42387 11.9256 0.558313 10.98 0.334318C10.6664 0.259653 10.4353 0.210798 9.63243 0.202502C8.60227 0.192362 7.73081 0.206189 7.23686 0.443089C6.90818 0.600715 6.65463 0.952839 6.80958 0.973118C7.00021 0.998007 7.43218 1.08742 7.66132 1.39345C7.95713 1.7889 7.9468 2.67567 7.9468 2.67567C7.9468 2.67567 8.11677 5.12025 7.54957 5.42352C7.16079 5.63185 6.6274 5.2069 5.48079 3.26285C4.89387 2.26731 4.45063 1.16669 4.45063 1.16669C4.45063 1.16669 4.36517 0.961135 4.2121 0.85052C4.02711 0.716861 3.76886 0.67538 3.76886 0.67538L1.02583 0.692894C1.02583 0.692894 0.613577 0.703956 0.462387 0.880018C0.328099 1.0358 0.452057 1.35935 0.452057 1.35935C0.452057 1.35935 2.59972 6.29185 5.03191 8.77792C7.26221 11.0566 9.79395 10.9073 9.79395 10.9073H10.9415Z" fill="white"/>
</svg>
