<svg width="20" height="15" viewBox="0 0 20 15" fill="none" xmlns="http://www.w3.org/2000/svg">
<path fill-rule="evenodd" clip-rule="evenodd" d="M19.1987 2.55482C18.9779 1.70656 18.3272 1.0386 17.5011 0.811899C16.0039 0.399902 9.9999 0.399902 9.9999 0.399902C9.9999 0.399902 3.99587 0.399902 2.49859 0.811899C1.67245 1.0386 1.02183 1.70656 0.80103 2.55482C0.399902 4.09218 0.399902 7.2999 0.399902 7.2999C0.399902 7.2999 0.399902 10.5075 0.80103 12.045C1.02183 12.8932 1.67245 13.5612 2.49859 13.788C3.99587 14.1999 9.9999 14.1999 9.9999 14.1999C9.9999 14.1999 16.0039 14.1999 17.5011 13.788C18.3272 13.5612 18.9779 12.8932 19.1987 12.045C19.5999 10.5075 19.5999 7.2999 19.5999 7.2999C19.5999 7.2999 19.5999 4.09218 19.1987 2.55482Z" fill="white"/>
<path id="arrow" fill-rule="evenodd" clip-rule="evenodd" d="M8.2002 10.6001V4.6001L13.0002 7.60021L8.2002 10.6001Z" fill="#6A6A6A"/>
</svg>
